<svg xmlns="http://www.w3.org/2000/svg" xmlns:xlink="http://www.w3.org/1999/xlink" width="199.1" height="32.1" viewBox="0 0 199.1 32.1"><defs><path id="a" d="M1.6.3h195.9v31.6H1.6z"/></defs><clipPath id="b"><use xlink:href="#a" overflow="visible"/></clipPath><g clip-path="url(#b)"><defs><path id="c" d="M1.6.3h195.9v31.6H1.6z"/></defs><clipPath id="d"><use xlink:href="#c" overflow="visible"/></clipPath><path clip-path="url(#d)" fill-rule="evenodd" clip-rule="evenodd" d="M60.3.3c.4 0 .9.1 1.4.1 1.5.2 3 .6 4.3 1.3 1.7.9 2.8 2.3 3.4 4.1.7 2.3.7 4.6-.3 6.9-.8 1.8-2.1 3.1-3.9 3.8-.1 0-.1.1-.2.1.9.7 1.4 1.6 1.8 2.6 1.5 3.5 3 6.9 4.6 10.4.2.6.5 1.1.7 1.7v.1h-3.5c-.2 0-.2-.1-.3-.2-1.6-3.6-3.2-7.2-4.7-10.8-.2-.4-.4-.9-.6-1.3-.5-.9-1.2-1.3-2.2-1.4h-9v13.7h-3.4v-.2V.5.3h11.9zm-8.5 14.4H59.4c1.2 0 2.3-.1 3.4-.5 1.3-.5 2.3-1.2 3-2.5.5-1 .7-2.1.6-3.3-.2-2.2-1.2-3.8-3.4-4.6-1.2-.5-2.5-.6-3.8-.6h-7.3v11.5zM1.6.3H5v28.2h12.6v3H1.7V.3zM111.9 11.3V.3h3.2v31.1h-3.2v-1.1c-.1.1-.2.1-.2.1-3.9 2.3-9 1.7-12.3-1.4-2-1.9-3.1-4.2-3.4-6.9-.2-2.3.1-4.6 1.2-6.7 1.6-2.9 4.1-4.8 7.4-5.3 2.3-.4 4.4 0 6.6.8.2.2.4.3.7.4m0 9.7v-6c0-.1 0-.2-.1-.3-1.9-1.2-4-1.8-6.3-1.5-2.6.3-4.4 1.7-5.6 4.1-.7 1.5-.8 3.2-.6 4.8.4 2.8 2 4.9 4.6 6 2.7 1.1 5.4.7 7.9-.9.1-.1.1-.2.1-.3V21zM92.7 21.3h-16v.9c.1 1.2.4 2.4 1.1 3.4 1.2 1.7 2.8 2.7 4.8 3 2.2.3 4.2-.3 5.9-1.6.3-.2.6-.6.9-.9.9.4 1.8.9 2.8 1.4-.3.4-.6.7-.9 1.1-1.2 1.3-2.7 2.1-4.4 2.6-2.7.8-5.3.8-7.9-.5-2.9-1.4-4.7-3.8-5.3-7-.4-2.2-.5-4.4.2-6.6.8-2.9 2.6-5.1 5.4-6.4 1.5-.7 3.1-.9 4.7-.8 1.5.1 3 .5 4.3 1.3 1.8 1.1 3 2.6 3.7 4.6.6 1.7.8 3.6.7 5.4.1 0 .1.1 0 .1m-3.4-2.8c0-.3-.1-.6-.1-.9-.3-1.8-1.3-3.2-3-4-1.4-.6-2.8-.7-4.2-.4-2.2.5-3.7 1.9-4.5 4-.2.4-.2.9-.4 1.3h12.2zM197.4 21.3h-16v.1c0 1.7.4 3.3 1.5 4.7 1.6 1.8 3.6 2.8 6 2.6 2-.1 3.8-.9 5.2-2.4 0 0 .1-.1.2-.1.9.4 1.8.9 2.7 1.3-.2.3-.4.5-.6.7-1.1 1.3-2.6 2.2-4.2 2.8-2.6.9-5.2 1-7.7 0-3.2-1.3-5.2-3.7-5.9-7-.5-2.3-.5-4.7.2-7 .9-2.9 2.7-5.1 5.5-6.3 1.5-.6 3-.8 4.6-.7 1.5.1 2.9.5 4.2 1.3 1.8 1.1 3 2.7 3.7 4.6.6 1.7.7 3.5.7 5.3 0 0-.1 0-.1.1m-3.4-2.8c-.1-.4-.1-.7-.2-1.1-.4-1.7-1.3-3.1-2.9-3.8-.9-.4-2-.6-3-.6-2.3.1-4.1 1.1-5.2 3.1-.4.7-.7 1.5-.8 2.4H194zM140.2 20.9c0 2.6-.8 5-2.5 7.1-1.9 2.2-4.2 3.5-7.1 3.7-2.3.2-4.4-.1-6.4-1.3-2.9-1.7-4.7-4.2-5.2-7.5-.4-2.4-.2-4.7.8-6.9 1.6-3.3 4.1-5.3 7.7-6 2.8-.5 5.4 0 7.8 1.5 2.5 1.7 4.1 4.1 4.6 7.1.2.9.2 1.6.3 2.3m-3.3 0c0-.5-.1-1-.2-1.5-.4-3.1-3.1-6.1-6.6-6.3-2.7-.2-4.9.7-6.5 2.9-1.7 2.4-2 5.1-1 7.7 1 2.9 3.1 4.5 6.2 4.8 2.5.2 4.6-.6 6.3-2.5 1.3-1.3 1.8-3.1 1.8-5.1M36 31.4h-3.2v-1.5c-.1.1-.2.1-.2.1-1.4.8-2.9 1.4-4.5 1.7-1.7.3-3.4.2-5-.6s-2.6-2.1-2.8-3.9c-.4-2.4.4-4.4 2.3-5.9 1.1-.9 2.3-1.4 3.6-1.7 1.6-.5 3.3-.7 4.9-.9.5-.1 1-.1 1.5-.1h.2v-.1c0-.9 0-1.8-.1-2.7-.1-1.5-1-2.4-2.6-2.7-1.5-.3-2.9-.1-4.3.4-.8.3-1.7.8-2.5 1.1-.1 0-.2.1-.3.1l-1.2-2.4c.4-.3.9-.5 1.3-.7 2-1 4.2-1.6 6.4-1.5 1.3 0 2.6.3 3.7 1 1.7 1 2.7 2.5 2.7 4.4v15.8c.1 0 .1.1.1.1m-3.2-10.3c-1.5.1-3 .2-4.4.5-1.2.3-2.3.7-3.3 1.4-.6.4-1.2 1-1.5 1.7-.8 1.6-.1 3.8 2.1 4.3.8.2 1.6.1 2.4 0 1.7-.3 3.2-.9 4.6-1.9.1-.1.2-.2.2-.4v-5.6zM157.8 10.4h3.1v21h-3.1V29l-1.1 1.1c-1.2 1-2.5 1.5-4.1 1.7-1.4.1-2.8 0-4.2-.5-2.5-1-4-2.9-4.5-5.5-.2-.8-.2-1.7-.2-2.5V10.6h3.2V23.5c0 .9.1 1.7.5 2.5.7 1.7 2 2.6 3.8 2.8 1.1.1 2.2 0 3.2-.4.8-.3 1.5-.9 2.1-1.6.4-.5.9-1.1 1.3-1.7.1-.1.1-.2.1-.3V10.4zM167.6 10.4V3.8h3.2v6.6h4.9v2.8h-4.9v11.4c0 .8 0 1.6.1 2.3.1 1.3 1.1 2 2.3 1.9l2.7-.3h.1c.2 1 .4 1.9.6 3-.7.1-1.4.3-2.1.4-.9.1-1.8.2-2.7.1-1.2-.1-2.2-.6-3.1-1.5-.7-.7-1-1.6-1.1-2.5v-.8V13.5h-4.3v-2.8h4.3z"/></g></svg>